<?xml version="1.0" encoding="UTF-8" standalone="no"?>
<svg
   width="40"
   height="40"
   viewBox="0 0 40 40"
   version="1.1"
   id="svg12"
   sodipodi:docname="release-drafter.svg"
   inkscape:version="1.1 (1:1.1+202105261517+ce6663b3b7)"
   xmlns:inkscape="http://www.inkscape.org/namespaces/inkscape"
   xmlns:sodipodi="http://sodipodi.sourceforge.net/DTD/sodipodi-0.dtd"
   xmlns="http://www.w3.org/2000/svg"
   xmlns:svg="http://www.w3.org/2000/svg"
   xmlns:rdf="http://www.w3.org/1999/02/22-rdf-syntax-ns#"
   xmlns:cc="http://creativecommons.org/ns#"
   xmlns:dc="http://purl.org/dc/elements/1.1/">
  <sodipodi:namedview
     id="namedview14"
     pagecolor="#ffffff"
     bordercolor="#666666"
     borderopacity="1.0"
     inkscape:pageshadow="2"
     inkscape:pageopacity="0.0"
     inkscape:pagecheckerboard="0"
     showgrid="false"
     fit-margin-top="0"
     fit-margin-left="0"
     fit-margin-right="0"
     fit-margin-bottom="0"
     inkscape:zoom="3.299169"
     inkscape:cx="169.58816"
     inkscape:cy="19.853484"
     inkscape:window-width="3840"
     inkscape:window-height="2103"
     inkscape:window-x="0"
     inkscape:window-y="33"
     inkscape:window-maximized="1"
     inkscape:current-layer="svg12" />
  <!-- Generator: Sketch 50.2 (55047) - http://www.bohemiancoding.com/sketch -->
  <title
     id="title2">logo</title>
  <desc
     id="desc4">Created with Sketch.</desc>
  <defs
     id="defs6" />
  <rect
     id="Rectangle"
     fill="#f98a18"
     x="0"
     y="0"
     width="40"
     height="40"
     rx="4"
     style="fill-rule:evenodd;stroke:none;stroke-width:1" />
  <path
     d="M 22,24.422 V 24 c 0,-1.104 -0.895,-2 -2,-2 h -6 c -1.105,0 -2,0.896 -2,2 v 0.422 C 10.236,25.194 9,26.951 9,29 v 3 h 16 v -3 c 0,-2.049 -1.236,-3.806 -3,-4.578 z M 26,8 C 20.477,8 16,12.477 16,18 v 2 h 2 v -2 c 0,-0.107 0.029,-2.632 2.553,-3.895 0.496,-0.247 1.095,-0.046 1.342,0.447 0.247,0.494 0.047,1.095 -0.447,1.342 C 20.017,16.61 20,17.986 20,18 h 3 c 5.523,0 10,-4.477 10,-10 z"
     id="inkwell"
     fill="#ffffff"
     fill-rule="nonzero"
     style="stroke:none;stroke-width:1" />
  <metadata
     id="metadata831">
    <rdf:RDF>
      <cc:Work
         rdf:about="">
        <dc:title>logo</dc:title>
      </cc:Work>
    </rdf:RDF>
  </metadata>
</svg>
