<?xml version="1.0" encoding="UTF-8" standalone="no"?>
<!-- Created with Inkscape (http://www.inkscape.org/) -->

<svg
   width="129.89299mm"
   height="115.41015mm"
   viewBox="0 0 129.89299 115.41015"
   version="1.1"
   id="svg8"
   inkscape:version="1.1.1 (1:1.1+202109281949+c3084ef5ed)"
   sodipodi:docname="release.svg"
   xmlns:inkscape="http://www.inkscape.org/namespaces/inkscape"
   xmlns:sodipodi="http://sodipodi.sourceforge.net/DTD/sodipodi-0.dtd"
   xmlns:xlink="http://www.w3.org/1999/xlink"
   xmlns="http://www.w3.org/2000/svg"
   xmlns:svg="http://www.w3.org/2000/svg"
   xmlns:rdf="http://www.w3.org/1999/02/22-rdf-syntax-ns#"
   xmlns:cc="http://creativecommons.org/ns#"
   xmlns:dc="http://purl.org/dc/elements/1.1/">
  <defs
     id="defs2">
    <linearGradient
       id="linearGradient4515"
       inkscape:collect="always">
      <stop
         id="stop4511"
         offset="0"
         style="stop-color:#0088aa;stop-opacity:1" />
      <stop
         id="stop4513"
         offset="1"
         style="stop-color:#55ddff;stop-opacity:1" />
    </linearGradient>
    <linearGradient
       gradientTransform="matrix(0.47463189,-0.53762361,0.53762361,0.47463189,-48.480681,143.16395)"
       inkscape:collect="always"
       xlink:href="#linearGradient4515"
       id="linearGradient37-1"
       x1="92.207985"
       y1="57.526501"
       x2="91.673447"
       y2="229.64809"
       gradientUnits="userSpaceOnUse" />
  </defs>
  <sodipodi:namedview
     id="base"
     pagecolor="#ffffff"
     bordercolor="#666666"
     borderopacity="1.0"
     inkscape:pageopacity="0.0"
     inkscape:pageshadow="2"
     inkscape:zoom="0.98994949"
     inkscape:cx="280.31733"
     inkscape:cy="195.46452"
     inkscape:document-units="mm"
     inkscape:current-layer="layer1"
     showgrid="false"
     inkscape:window-width="3840"
     inkscape:window-height="2103"
     inkscape:window-x="0"
     inkscape:window-y="33"
     inkscape:window-maximized="1"
     inkscape:snap-global="true"
     fit-margin-top="0"
     fit-margin-left="0"
     fit-margin-right="0"
     fit-margin-bottom="0"
     inkscape:pagecheckerboard="0" />
  <metadata
     id="metadata5">
    <rdf:RDF>
      <cc:Work
         rdf:about="">
        <dc:format>image/svg+xml</dc:format>
        <dc:type
           rdf:resource="http://purl.org/dc/dcmitype/StillImage" />
        <dc:title />
      </cc:Work>
    </rdf:RDF>
  </metadata>
  <g
     inkscape:label="Layer 1"
     inkscape:groupmode="layer"
     id="layer1"
     transform="translate(-26.016097,-120.02744)">
    <g
       id="g55"
       transform="matrix(-1,0,0,1,181.92518,0)">
      <path
         style="fill:#0088aa;fill-opacity:1;stroke:none;stroke-width:0.264583px;stroke-linecap:butt;stroke-linejoin:miter;stroke-opacity:1"
         d="m 83.211777,196.01533 -2.004523,9.6217 26.334156,17.16061 1.02994,-0.98269 z"
         id="path4634"
         inkscape:connector-curvature="0"
         sodipodi:nodetypes="ccccc" />
      <path
         style="fill:#0088aa;fill-opacity:1;stroke:none;stroke-width:0.264583px;stroke-linecap:butt;stroke-linejoin:miter;stroke-opacity:1"
         d="m 121.56495,193.209 14.03165,-2.27179 1.10012,-1.39981 -21.14533,-23.05535 -8.15172,3.34087 z"
         id="path4632"
         inkscape:connector-curvature="0"
         sodipodi:nodetypes="cccccc" />
      <path
         style="fill:url(#linearGradient37-1);fill-opacity:1;stroke:none;stroke-width:0.190047;stroke-linecap:butt;stroke-linejoin:miter;stroke-miterlimit:4;stroke-dasharray:none;stroke-opacity:1"
         d="m 26.211775,120.89467 c 0,0 -4.166226,24.70261 25.949249,52.56796 30.115476,27.86534 56.956596,33.66384 56.956596,33.66384 l 11.78065,-13.63375 c 0,0 -9.04672,-24.86175 -40.194947,-52.36044 C 49.555085,113.63359 26.211775,120.89467 26.211775,120.89467 Z"
         id="path10-0"
         inkscape:connector-curvature="0"
         sodipodi:nodetypes="cscczc" />
      <path
         style="fill:#ffeeaa;stroke:none;stroke-width:0.264583px;stroke-linecap:butt;stroke-linejoin:miter;stroke-opacity:1"
         d="m 111.0078,193.74353 c 0,0 10.4235,-5.07811 24.58879,2.6727 10.63141,5.81718 10.15625,22.98518 14.43256,29.93419 4.27631,6.949 5.87993,9.08717 5.87993,9.08717 0,0 -13.63075,-8.28536 -22.98518,-8.55263 -9.35443,-0.26727 -20.31248,-1.87089 -21.91609,-13.09621 -1.60362,-11.22532 -1e-5,-20.04522 -1e-5,-20.04522 z"
         id="path4503"
         inkscape:connector-curvature="0"
         sodipodi:nodetypes="csscssc" />
      <path
         style="fill:#ffcc00;stroke:none;stroke-width:0.158899px;stroke-linecap:butt;stroke-linejoin:miter;stroke-opacity:1"
         d="m 112.67652,194.68415 c 0,0 -3.31089,14.05347 9.12781,24.68176 8.88472,7.59158 4.06614,-1.73776 27.96153,10.19174 -13.62111,-19.61524 -2.85291,-17.87887 -12.15979,-28.00566 -9.88489,-10.31824 -24.92955,-6.86784 -24.92955,-6.86784 z"
         id="path1032"
         inkscape:connector-curvature="0"
         sodipodi:nodetypes="csccc" />
      <path
         style="fill:#0088aa;fill-opacity:1;stroke:none;stroke-width:0.190047;stroke-linecap:butt;stroke-linejoin:miter;stroke-miterlimit:4;stroke-dasharray:none;stroke-opacity:1"
         d="m 112.81708,178.16925 c -0.11488,0.33323 -0.21688,0.64265 -0.37125,1.04656 -0.24017,0.62842 -0.53011,1.33694 -0.87669,2.10963 -0.34658,0.77268 -0.74977,1.60949 -1.21591,2.49386 -0.46613,0.88436 -0.99545,1.81626 -1.59432,2.7797 -0.59887,0.96344 -1.26739,1.95805 -2.01216,2.96797 -0.74477,1.00992 -1.56582,2.03514 -2.46966,3.05893 -0.90383,1.02379 -1.78841,1.94871 -2.64432,2.7836 -0.85592,0.83489 -1.683238,1.57969 -2.472647,2.24308 -0.789409,0.66339 -1.540881,1.24543 -2.245197,1.75473 -0.704308,0.5093 -1.361356,0.94596 -1.961987,1.31858 -0.497641,0.30874 -0.929888,0.54865 -1.344691,0.77448 9.482872,4.29523 15.509372,5.62621 15.509372,5.62621 l 11.78079,-13.63381 c 0,0 -2.19737,-5.99501 -8.08133,-15.32352 z"
         id="path997-9"
         inkscape:connector-curvature="0" />
      <path
         style="fill:#ffe680;stroke:none;stroke-width:0.0754125px;stroke-linecap:butt;stroke-linejoin:miter;stroke-opacity:1"
         d="m 120.32405,202.35688 c 0,0 -1.48624,6.86992 4.18234,12.13299 7.13251,6.62229 5.87213,1.28392 16.82094,7.14818 -6.24116,-9.6424 -5.31623,-10.92701 -9.58063,-15.9051 -4.52921,-5.07221 -11.42265,-3.37607 -11.42265,-3.37607 z"
         id="path1032-2"
         inkscape:connector-curvature="0"
         sodipodi:nodetypes="csccc" />
      <path
         style="fill:#006781;fill-opacity:1;stroke:none;stroke-width:0.718287;stroke-linecap:butt;stroke-linejoin:miter;stroke-miterlimit:4;stroke-dasharray:none;stroke-opacity:1"
         d="m 353.65625,266.12109 c -4.26493,6.48234 -17.06206,25.66164 -23.58984,32.18946 -4.92848,6.9446 -22.14754,23.99241 -26.68555,27.9375 6.81606,2.05658 10.70312,2.94531 10.70312,2.94531 l 44.5254,-51.5293 c 0,0 -1.51994,-4.12808 -4.95313,-11.54297 z"
         transform="matrix(0.26458333,0,0,0.26458333,26.016097,120.02744)"
         id="path997-9-1" />
      <path
         style="fill:#43cbed;fill-opacity:1;stroke:none;stroke-width:0.189748px;stroke-linecap:butt;stroke-linejoin:miter;stroke-opacity:1"
         d="m 120.89827,193.49272 c 0,0 14.82947,-1.73761 14.50842,-2.53241 -0.32105,-0.79479 -20.50388,-23.98219 -20.50388,-23.98219 l -8.10852,2.81313 z"
         id="path905"
         inkscape:connector-curvature="0" />
      <path
         style="fill:#39c1e3;fill-opacity:1;stroke:none;stroke-width:0.189748px;stroke-linecap:butt;stroke-linejoin:miter;stroke-opacity:1"
         d="m 109.11762,207.12647 c 0,0 0.18618,14.99391 -0.64229,14.77387 -0.82847,-0.22003 -26.339196,-17.37243 -26.339196,-17.37243 l 1.786149,-8.39473 z"
         id="path905-3"
         inkscape:connector-curvature="0"
         sodipodi:nodetypes="ccccc" />
      <circle
         style="opacity:1;fill:#006781;fill-opacity:1;stroke:none;stroke-width:0.224791;stroke-linecap:round;stroke-linejoin:round;stroke-miterlimit:4;stroke-dasharray:none;stroke-opacity:1"
         id="path844-5"
         cx="-74.470657"
         cy="137.58905"
         r="13.149567"
         transform="rotate(-48.560871)" />
      <path
         style="fill:#0088aa;fill-opacity:1;stroke:none;stroke-width:0.190047;stroke-linecap:butt;stroke-linejoin:miter;stroke-miterlimit:4;stroke-dasharray:none;stroke-opacity:1"
         d="m 26.211808,120.89487 c 0,0 -1.328923,7.89176 2.950405,19.78421 2.262396,-1.00356 5.554487,-3.20145 9.871802,-7.95317 3.602629,-3.96517 6.020441,-7.79008 7.618525,-10.98207 -12.623193,-3.28003 -20.440732,-0.84897 -20.440732,-0.84897 z"
         id="path10"
         inkscape:connector-curvature="0" />
      <circle
         style="opacity:1;fill:#0088aa;fill-opacity:1;stroke:none;stroke-width:0.219945;stroke-linecap:round;stroke-linejoin:round;stroke-miterlimit:4;stroke-dasharray:none;stroke-opacity:1"
         id="path844"
         cx="-74.579132"
         cy="137.18062"
         r="12.866084"
         transform="rotate(-48.560871)" />
      <circle
         style="opacity:1;fill:#55ddff;fill-opacity:1;stroke:none;stroke-width:0.155256;stroke-linecap:round;stroke-linejoin:round;stroke-miterlimit:4;stroke-dasharray:none;stroke-opacity:1"
         id="path844-3"
         cx="-74.579132"
         cy="137.18062"
         r="9.0819416"
         transform="rotate(-48.560871)" />
      <path
         style="fill:#3fc7e9;fill-opacity:1;stroke:none;stroke-width:0.126754px;stroke-linecap:butt;stroke-linejoin:miter;stroke-opacity:1"
         d="m 113.01659,202.62521 c 0,0 9.76153,2.12546 10.25218,2.22873 -0.46154,-0.63565 -22.07812,-22.13902 -22.07812,-22.13902 l -5.368901,-0.2901 z"
         id="path905-9"
         inkscape:connector-curvature="0"
         sodipodi:nodetypes="ccccc" />
      <path
         style="fill:#0088aa;fill-opacity:1;stroke:none;stroke-width:0.189748px;stroke-linecap:butt;stroke-linejoin:miter;stroke-opacity:1"
         d="m 95.821749,182.42482 0.409213,-0.47259 c 0,0 5.231578,0.37954 5.346678,0.30037 -0.16596,0.22636 -0.38711,0.46221 -0.38711,0.46221 z"
         id="path963"
         inkscape:connector-curvature="0"
         sodipodi:nodetypes="ccccc" />
      <path
         style="fill:#0088aa;fill-opacity:1;stroke:none;stroke-width:0.189748px;stroke-linecap:butt;stroke-linejoin:miter;stroke-opacity:1"
         d="m 123.26877,204.85394 c -0.018,-0.0159 0.89123,-1.22669 0.89123,-1.22669 l -22.58225,-21.37456 -0.38712,0.46221 z"
         id="path965"
         inkscape:connector-curvature="0"
         sodipodi:nodetypes="ccccc" />
      <circle
         style="opacity:1;fill:#e8faff;fill-opacity:1;stroke:none;stroke-width:0.0524538;stroke-linecap:round;stroke-linejoin:round;stroke-miterlimit:4;stroke-dasharray:none;stroke-opacity:1"
         id="path844-3-3"
         cx="-75.075394"
         cy="132.98396"
         r="3.0683773"
         transform="rotate(-48.560871)" />
      <circle
         style="opacity:1;fill:#e8faff;fill-opacity:1;stroke:none;stroke-width:0.0318935;stroke-linecap:round;stroke-linejoin:round;stroke-miterlimit:4;stroke-dasharray:none;stroke-opacity:1"
         id="path844-3-3-6"
         cx="-72.091003"
         cy="139.79706"
         r="1.8656644"
         transform="rotate(-48.560871)" />
      <circle
         style="opacity:1;fill:#e8faff;fill-opacity:1;stroke:none;stroke-width:0.0181866;stroke-linecap:round;stroke-linejoin:round;stroke-miterlimit:4;stroke-dasharray:none;stroke-opacity:1"
         id="path844-3-3-6-7"
         cx="-74.462479"
         cy="143.58092"
         r="1.0638558"
         transform="rotate(-48.560871)" />
      <path
         style="fill:#c3eef9;fill-opacity:0.137795;stroke:none;stroke-width:0.264583px;stroke-linecap:butt;stroke-linejoin:miter;stroke-opacity:1"
         d="m 30.693314,121.61417 c 2.639444,-0.16703 14.432554,-1.63702 27.127856,6.38106 12.695303,8.01809 45.43582,42.49586 44.90128,42.22859 -0.53454,-0.26727 -39.823159,-38.48681 -47.440341,-40.3577 -7.617181,-1.87089 -24.187891,0.93544 -25.925143,-2.53906 -1.737252,-3.4745 0.03558,-5.63057 1.336348,-5.71289 z"
         id="path4550"
         inkscape:connector-curvature="0"
         sodipodi:nodetypes="ssssss" />
      <path
         style="fill:#63c7e0;fill-opacity:0.492126;stroke:none;stroke-width:0.264583px;stroke-linecap:butt;stroke-linejoin:miter;stroke-opacity:1"
         d="m 53.02993,167.94984 c 0.3503,2.1429 4.547177,7.81336 14.563548,13.86098 10.016368,6.04762 27.592261,15.875 27.592261,15.875 0,0 -28.323318,-21.35566 -30.994048,-23.62351 -2.269823,-2.26786 -6.80357,-7.37054 -7.9375,-7.9375 -1.133928,-0.56697 -3.574561,-0.31788 -3.224261,1.82503 z"
         id="path4552"
         inkscape:connector-curvature="0"
         sodipodi:nodetypes="zscccz" />
    </g>
  </g>
</svg>
